<?xml version="1.0" encoding="UTF-8" standalone="no"?>
<!-- Created with Inkscape (http://www.inkscape.org/) -->

<svg
   width="211.66667mm"
   height="211.66667mm"
   viewBox="0 0 211.66667 211.66667"
   version="1.1"
   id="svg1"
   xml:space="preserve"
   xmlns:xlink="http://www.w3.org/1999/xlink"
   xmlns="http://www.w3.org/2000/svg"
   xmlns:svg="http://www.w3.org/2000/svg"><defs
     id="defs1"><clipPath
       id="b"><use
         xlink:href="#a"
         height="293.20099"
         width="289.59799"
         overflow="visible"
         id="use1" /></clipPath><path
       id="a"
       d="m -275.786,-151.084 h 841.89 v 595.28 h -841.89 z" /></defs><g
     id="layer1"><g
       id="g1"
       transform="matrix(0.48127609,0,0,0.48127609,37.04141,43.105349)"><path
         clip-path="url(#b)"
         d="m 235.298,126.699 c 0,12.001 -6.323,17.882 -18.1,18.09 v 0.01 H 72.399 v -0.01 c -11.777,-0.208 -18.1,-6.089 -18.1,-18.09 0,-12.001 6.323,-17.882 18.1,-18.09 v -0.01 h 144.799 v 0.01 c 11.777,0.208 18.1,6.089 18.1,18.09 m -18.1,27.159 v -0.01 H 72.399 v 0.01 c -11.777,0.208 -18.1,6.09 -18.1,18.091 0,12.001 6.323,17.882 18.1,18.09 v 0.01 h 144.799 v -0.01 c 11.776,-0.208 18.1,-6.089 18.1,-18.09 0,-12.001 -6.323,-17.883 -18.1,-18.091 m 45.25,-99.538 v -0.01 c -11.777,0.208 -18.101,6.089 -18.101,18.09 v 99.549 c 0,12.001 6.323,17.882 18.101,18.09 v -0.021 c 17.665,-0.623 27.149,-18.266 27.149,-54.27 V 90.5 C 289.598,66.498 280.113,54.736 262.448,54.32 M 27.15,54.31 v 0.01 C 9.484,54.736 0,66.497 0,90.5 v 45.249 c 0,36.004 9.484,53.646 27.15,54.27 v 0.021 c 11.777,-0.208 18.099,-6.089 18.099,-18.09 V 72.4 c 0,-12.001 -6.322,-17.882 -18.099,-18.09 m 235.298,-9.06 c 0,-30.003 -15.808,-44.705 -45.25,-45.225 V 0 H 72.399 V 0.025 C 42.957,0.545 27.15,15.247 27.15,45.25 v 0.015 c 17.665,0.312 27.149,9.133 27.149,27.135 0,18.001 9.485,26.823 27.15,27.135 v 0.015 h 126.699 v -0.015 c 17.666,-0.312 27.15,-9.134 27.15,-27.135 0,-18.002 9.484,-26.823 27.15,-27.135 z"
         fill="#e42528"
         id="path3"
         transform="matrix(1.4907219,0,0,1.4907219,-72.917783,-11.3183)" /></g></g></svg>
